<?xml version="1.0" encoding="utf-8"?>
<!-- Generator: Adobe Illustrator 16.0.0, SVG Export Plug-In . SVG Version: 6.00 Build 0)  -->
<!DOCTYPE svg PUBLIC "-//W3C//DTD SVG 1.1//EN" "http://www.w3.org/Graphics/SVG/1.1/DTD/svg11.dtd">
<svg version="1.1" id="Layer_1" xmlns="http://www.w3.org/2000/svg" xmlns:xlink="http://www.w3.org/1999/xlink" x="0px" y="0px"
	 width="2000px" height="2000px" viewBox="0 0 2000 2000" enable-background="new 0 0 2000 2000" xml:space="preserve">
<g id="Layer_49" opacity="0.1">
	
		<circle fill="none" stroke="#000000" stroke-width="14" stroke-linecap="round" stroke-linejoin="round" cx="1000" cy="1000" r="393.131"/>
	
		<circle fill="none" stroke="#000000" stroke-width="14" stroke-linecap="round" stroke-linejoin="round" cx="1000" cy="1000" r="120.963"/>
	
		<circle fill="none" stroke="#000000" stroke-width="14" stroke-linecap="round" stroke-linejoin="round" cx="1000" cy="1000" r="166.324"/>
	<path fill="none" stroke="#000000" stroke-width="14" stroke-linecap="round" stroke-linejoin="round" d="M606.869,1000h226.807"/>
	<path fill="none" stroke="#000000" stroke-width="14" stroke-linecap="round" stroke-linejoin="round" d="M1166.324,1000h226.807"
		/>
</g>
<g>
	<path d="M856.213,784.551c8.183-7.655,17.23-14.916,27.133-21.786c9.903-6.864,20.725-12.936,32.48-18.222
		c11.748-5.278,24.422-9.438,38.025-12.477c13.598-3.033,28.324-4.555,44.168-4.555c20.859,0,40.204,3.039,58.029,9.109
		c17.825,6.079,33.204,14.657,46.148,25.747c12.934,11.093,23.104,24.56,30.5,40.404c7.39,15.844,11.091,33.669,11.091,53.475
		c0,20.07-2.971,37.369-8.912,51.892c-5.941,14.524-13.469,27.269-22.579,38.223c-9.109,10.96-19.083,20.467-29.905,28.519
		c-10.832,8.059-20.931,15.646-30.304,22.776c-9.378,7.131-17.428,14.26-24.161,21.391c-6.736,7.129-10.634,15.051-11.688,23.768
		l-7.128,60.604h-48.327l-4.753-65.756v-4.357c0-11.09,2.971-20.924,8.913-29.508c5.941-8.579,13.469-16.638,22.578-24.165
		c9.111-7.525,18.878-15.05,29.313-22.578c10.43-7.526,20.2-15.844,29.311-24.956c9.114-9.108,16.638-19.47,22.58-31.094
		c5.941-11.617,8.912-25.351,8.912-41.195c0-11.352-2.248-21.65-6.734-30.896c-4.491-9.241-10.565-17.096-18.22-23.569
		c-7.663-6.468-16.704-11.419-27.132-14.854c-10.438-3.429-21.59-5.148-33.474-5.148c-16.11,0-29.904,1.98-41.393,5.941
		c-11.489,3.961-21.191,8.317-29.114,13.071s-14.327,9.109-19.214,13.071c-4.888,3.961-8.913,5.941-12.079,5.941
		c-6.604,0-11.752-3.033-15.45-9.109L856.213,784.551z M933.85,1257.904c0-6.867,1.25-13.334,3.763-19.412
		c2.507-6.072,5.941-11.35,10.297-15.844c4.361-4.486,9.572-8.053,15.649-10.695c6.073-2.635,12.54-3.961,19.411-3.961
		c6.861,0,13.328,1.326,19.406,3.961c6.073,2.643,11.354,6.209,15.844,10.695c4.488,4.494,7.985,9.771,10.499,15.844
		c2.507,6.078,3.765,12.545,3.765,19.412c0,7.125-1.258,13.662-3.765,19.604c-2.514,5.941-6.011,11.16-10.499,15.646
		c-4.49,4.492-9.771,7.988-15.844,10.494c-6.078,2.508-12.544,3.77-19.406,3.77c-6.872,0-13.338-1.262-19.411-3.77
		c-6.077-2.506-11.288-6.002-15.649-10.494c-4.355-4.486-7.79-9.705-10.297-15.646
		C935.099,1271.566,933.85,1265.029,933.85,1257.904z"/>
</g>
</svg>
